PathFileType	4	(X/Y/Z)	P:\Projects\LMB_grand_challenge_database\project_only\opensim\experimental_data\SixthCompetition/DM_ngait_og6_new.trc
DataRate	CameraRate	NumFrames	NumMarkers	Units	OrigDataRate	OrigDataStartFrame	OrigNumFrames
120	120	4	68	mm	120	0	342
Frame#	Time	Sternum			Neck			R_Shoulder			L_Shoulder			Xiphoid			Thoracic			R_Asis			L_Asis			R_Psis			L_Psis			Lumbar			R_Elbow			R_ElbowMedial			R_ShoulderAnterior			R_ShoulderPosterior			R_Wrist			R_Radius			R_Ulna			L_Elbow			L_ElbowMedial			L_ShoulderAnterior			L_ShoulderPosterior			L_Wrist			L_Ulna			L_Radius			L_Thigh_Superior			L_Thigh_Inferior			L_Thigh_Lateral			L_Knee_Lateral			L_Knee_Medial			L_Patella			L_Shank_Superior			L_Shank_Inferior			L_Shank_Lateral			L_Ankle_Lateral			L_Ankle_Medial			R_Thigh_Superior			R_Thigh_Inferior			R_Thigh_Lateral			R_Knee_Lateral			R_Knee_Medial			R_Patella			R_Shank_Superior			R_Shank_Inferior			R_Shank_Lateral			R_Ankle_Lateral			RankleMedial			R_Heel			R_Toe			R_Midfoot_Medial			R_Midfoot_Lateral			R_Hindfoot			R_Midfoot_Superior			R_ToeMedial			R_ToeLateral			L_Heel			L_Toe			L_Midfoot_Medial			L_Midfoot_Lateral			L_Hindfoot			L_Midfoot_Superior			L_ToeMedial			L_ToeLateral			Oglobal			Sacral			Xglobal			Yglobal			Zglobal			
		X1	Y1	Z1	X2	Y2	Z2	X3	Y3	Z3	X4	Y4	Z4	X5	Y5	Z5	X6	Y6	Z6	X7	Y7	Z7	X8	Y8	Z8	X9	Y9	Z9	X10	Y10	Z10	X11	Y11	Z11	X12	Y12	Z12	X13	Y13	Z13	X14	Y14	Z14	X15	Y15	Z15	X16	Y16	Z16	X17	Y17	Z17	X18	Y18	Z18	X19	Y19	Z19	X20	Y20	Z20	X21	Y21	Z21	X22	Y22	Z22	X23	Y23	Z23	X24	Y24	Z24	X25	Y25	Z25	X26	Y26	Z26	X27	Y27	Z27	X28	Y28	Z28	X29	Y29	Z29	X30	Y30	Z30	X31	Y31	Z31	X32	Y32	Z32	X33	Y33	Z33	X34	Y34	Z34	X35	Y35	Z35	X36	Y36	Z36	X37	Y37	Z37	X38	Y38	Z38	X39	Y39	Z39	X40	Y40	Z40	X41	Y41	Z41	X42	Y42	Z42	X43	Y43	Z43	X44	Y44	Z44	X45	Y45	Z45	X46	Y46	Z46	X47	Y47	Z47	X48	Y48	Z48	X49	Y49	Z49	X50	Y50	Z50	X51	Y51	Z51	X52	Y52	Z52	X53	Y53	Z53	X54	Y54	Z54	X55	Y55	Z55	X56	Y56	Z56	X57	Y57	Z57	X58	Y58	Z58	X59	Y59	Z59	X60	Y60	Z60	X61	Y61	Z61	X62	Y62	Z62	X63	Y63	Z63	X64	Y64	Z64	X65	Y65	Z65	X66	Y66	Z66	X67	Y67	Z67	X68	Y68	Z68	

1	2.408333	-1210.9	1432.52	185.878	-1052.73	1352.74	152.823	-1083.64	1376.63	331.692	-1180.08	1399.62	-1.32195	-1034.47	1183.44	159.237	-1301	1249.54	183.887	-1117.8	961.598	315.308	-1117.41	947.289	33.9734	-1318.54	1003.7	205.042	-1319.05	996.659	126.108	-1315.68	1049.8	163.648	-1070	1064.43	432.571	-0	0	0	-0	0	0	-0	0	0	-0	0	0	-954.206	833.51	348.556	-988.144	814.831	409.865	-1307.62	1085.62	-82.4746	-0	0	0	-0	0	0	-0	0	0	-1322.97	815.59	-102.38	-1364.55	841.928	-108.973	-1311.93	829.501	-59.0111	-1146.33	790.117	-7.78645	-1030.94	598.014	41.5296	-1028.95	701.681	67.1875	-0	0	0	-0	0	0	-967.434	533.962	105.669	-1017.48	447.293	40.6409	-971.3339999999999	180.442	38.0812	-954.069	313.505	108.174	-0	0	0	-0	0	0	-1239.78	791.39	343.51	-1300.68	581.545	298.748	-1192.52	682.928	317.485	-0	0	0	-0	0	0	-1255.06	469.815	228.234	-1401.97	402.592	303.834	-1471.47	204.976	284.466	-1367.26	303.015	219.141	-0	0	0	-0	0	0	-1594.32	85.2315	226.269	-1297.59	46.8699	228.714	-1377.26	29.1816	175.691	-1391.16	19.2613	291.711	-1498.96	33.5416	277.974	-1423.18	119.841	236.522	-1330.13	36.3807	186.728	-1340.64	36.2886	276.95	-1006.97	57.3988	91.9482	-715.417	107.238	65.7967	-784.059	72.36490000000001	127.347	-802.057	64.9845	14.5301	-904.979	37.8258	28.1327	-858.5309999999999	143.096	74.7533	-744.0599999999999	79.6597	111.003	-751.971	82.3917	16.0482	-0	0	0	-1318.8	1000.18	165.575	-200	0	0	-0	0	200	-0	200	0	
2	2.416667	-1202.1	1431.42	183.69	-1043.54	1351.93	150.542	-1074.51	1375.85	329.431	-1171.57	1398.51	-3.48397	-1024.91	1182.78	157.041	-1291.48	1248.16	182.248	-1107.19	963.299	314.038	-1106.8	946.383	33.07	-1308.45	1000.99	202.598	-1308.7	996.8200000000001	124.581	-1305.81	1048.55	161.769	-1063.45	1063.74	431.562	-0	0	0	-0	0	0	-0	0	0	-0	0	0	-947.849	832.29	348.556	-982.39	813.59	409.724	-1298.51	1084.13	-84.63209999999999	-0	0	0	-0	0	0	-0	0	0	-1312.93	813.893	-104.311	-1354.51	840.248	-111.218	-1302.46	828.2619999999999	-60.464	-1132.67	789.388	-6.56716	-1020.83	596.721	44.5286	-1014.79	700.126	67.24120000000001	-0	0	0	-0	0	0	-955.734	531.966	107.321	-1007.36	446.892	40.3777	-964.354	179.302	37.3676	-946.5069999999999	312.283	108.613	-0	0	0	-0	0	0	-1231.34	790.571	343.161	-1292.43	580.702	297.981	-1184.19	681.881	317.264	-0	0	0	-0	0	0	-1247.09	467.951	228.521	-1395.85	403.53	302.978	-1468.57	206.957	284.491	-1362.66	302.4	219.123	-0	0	0	-0	0	0	-1592.95	88.8092	226.536	-1297.2	46.162	228.69	-1376.9	28.9412	176.008	-1391.15	18.8158	291.969	-1498.58	35.3219	278.054	-1421.15	120.206	237.15	-1329.92	35.9839	186.725	-1340.01	35.7503	276.945	-1004.88	58.8223	90.6626	-711.231	97.736	69.94070000000001	-782.381	65.94410000000001	130.82	-798.2	58.5087	17.6799	-902.1660000000001	34.8071	28.8824	-852.0359999999999	139.544	76.12860000000001	-741.706	71.2158	114.823	-748.053	73.5449	19.8046	-0	0	0	-1308.58	998.905	163.589	-200	0	0	-0	0	200	-0	200	0	
3	2.425	-1193.13	1430.4	181.389	-1034.39	1351.5	148.035	-1065.54	1375.29	327.332	-1163.21	1397.26	-5.34718	-1014.97	1182.31	154.895	-1281.89	1246.75	180.668	-1097.18	962.0549999999999	313.045	-1095.97	945.796	32.1415	-1298.13	999.891	201.096	-1298.28	995.631	123.097	-1295.47	1047.41	160.46	-1057.04	1063.25	430.511	-0	0	0	-0	0	0	-0	0	0	-0	0	0	-942.071	830.949	348.458	-977.473	812.854	409.715	-1289.16	1082.64	-86.7546	-0	0	0	-0	0	0	-0	0	0	-1302.76	812.42	-106.398	-1344.04	838.534	-113.21	-1292.72	826.886	-62.5481	-1118.83	788.5599999999999	-4.0216	-1011.79	595.0839999999999	48.7474	-1000.58	698.217	66.9665	-0	0	0	-0	0	0	-944.426	530.534	109.684	-997.432	446.738	39.7456	-957.8440000000001	178.127	36.0354	-938.995	310.545	108.644	-0	0	0	-0	0	0	-1222.28	789.627	342.496	-1284.32	580.114	297.258	-1175.41	680.854	317.017	-0	0	0	-0	0	0	-1238.56	466.429	228.675	-1389.2	404.258	302.466	-1465.05	208.963	284.584	-1357.6	301.948	219.457	-0	0	0	-0	0	0	-1591.21	92.68989999999999	226.985	-1296.45	45.5447	228.482	-1376.38	28.7374	176.236	-1390.78	18.613	292.178	-1497.63	37.132	278.456	-1419.07	120.66	237.597	-1329.5	35.5229	186.794	-1339.34	35.1996	276.902	-1002.78	60.2155	89.5151	-707.547	88.3329	72.25709999999999	-780.612	58.9063	132.048	-795.5	51.6246	18.7718	-900.207	32.1214	28.9324	-847.732	134.462	76.41719999999999	-739.361	63.1813	116.865	-744.607	65.5312	21.6473	-0	0	0	-1298.21	997.761	162.097	-200	0	0	-0	0	200	-0	200	0	
4	2.433333	-1184.28	1429.57	179.153	-1025.06	1351.09	145.823	-1056.76	1374.92	325.234	-1154.6	1396.1	-7.66168	-1004.84	1182.3	152.804	-1272.26	1245.59	179.138	-1086.96	960.636	311.767	-1084.97	945.741	31.1364	-1287.66	998.978	199.497	-1287.72	994.6950000000001	121.586	-1284.94	1046.49	159.219	-1050.44	1062.92	429.223	-0	0	0	-0	0	0	-0	0	0	-0	0	0	-936.599	829.6799999999999	348.442	-972.068	811.385	409.493	-1279.77	1080.94	-88.4666	-0	0	0	-0	0	0	-0	0	0	-1292.29	810.837	-108.594	-1333.64	836.792	-115.361	-1281.62	825.1180000000001	-64.6801	-1105.61	788.843	-3.05568	-1002.74	594.277	52.0943	-986.798	695.573	65.74979999999999	-0	0	0	-0	0	0	-933.567	528.944	111.562	-987.124	446.371	39.2376	-951.143	177.162	34.931	-931.034	308.379	108.662	-0	0	0	-0	0	0	-1213	788.664	341.795	-1275.49	579.355	296.574	-1166.33	679.725	316.517	-0	0	0	-0	0	0	-1229.49	464.543	229.149	-1382.4	405.214	302.093	-1461.32	211.133	284.757	-1351.95	301.93	219.541	-0	0	0	-0	0	0	-1589.28	96.96939999999999	227.491	-1295.85	44.416	229.054	-1375.87	28.7052	176.398	-1390.48	18.3238	292.291	-1496.86	39.2879	278.615	-1416.43	121.238	238.224	-1329.07	35.2334	186.864	-1338.81	34.7245	276.909	-998.9349999999999	59.181	90.95780000000001	-704.718	80.04510000000001	72.6345	-776.16	54.0348	129.848	-793.005	47.5892	16.7953	-898.938	29.7201	29.0127	-843.419	130.738	75.74509999999999	-737.498	55.9413	117.137	-741.2380000000001	58.0506	22.9019	-0	0	0	-1287.69	996.837	160.542	-200	0	0	-0	0	200	-0	200	0	
